<?xml version="1.0" standalone="no"?>
<!DOCTYPE svg PUBLIC "-//W3C//DTD SVG 20010904//EN"
 "http://www.w3.org/TR/2001/REC-SVG-20010904/DTD/svg10.dtd">
<svg version="1.0" xmlns="http://www.w3.org/2000/svg"
 width="3264.000000pt" height="3264.000000pt" viewBox="0 0 3264.000000 3264.000000"
 preserveAspectRatio="xMidYMid meet">

<g transform="translate(0.000000,3264.000000) scale(0.100000,-0.100000)"
fill="#000000" stroke="none">
<path d="M0 23960 c0 -7501 2 -8680 14 -8680 8 0 29 12 48 28 18 15 41 34 52
42 134 105 160 177 89 249 -9 9 -12 23 -8 40 4 14 7 26 8 27 1 0 46 32 101 70
115 80 110 77 246 167 58 39 125 87 149 108 108 95 217 119 581 126 211 4 258
2 274 -9 18 -14 18 -16 2 -41 -10 -14 -34 -31 -53 -38 -33 -10 -368 -179 -518
-259 -33 -18 -85 -45 -115 -60 -30 -15 -84 -49 -120 -76 -84 -64 -319 -297
-356 -352 -56 -87 -24 -196 65 -223 32 -10 54 -8 137 11 103 23 181 27 324 15
76 -6 97 -4 200 24 140 37 236 68 264 86 12 7 32 16 46 20 14 4 43 15 65 25
104 45 255 110 305 130 30 12 107 49 170 82 63 33 145 75 181 93 45 23 84 53
125 98 56 62 69 70 289 177 127 62 238 116 248 122 219 114 267 138 277 138
19 0 145 77 231 142 70 53 101 68 223 110 77 27 161 55 186 63 47 14 432 147
535 185 33 12 98 33 145 46 47 14 121 38 165 54 44 16 118 40 165 53 47 14
110 32 140 41 30 9 71 19 90 22 19 3 62 14 95 24 33 10 92 24 130 30 139 23
291 59 465 111 52 15 115 30 140 34 72 10 77 14 94 55 8 21 21 42 28 46 7 5
110 12 228 15 127 4 244 13 285 22 39 8 99 18 135 22 77 7 242 38 357 67 46
11 114 24 152 29 38 4 111 21 161 36 84 25 94 26 118 12 21 -11 28 -23 30 -54
8 -130 23 -140 192 -132 64 3 134 12 158 21 23 8 87 20 142 26 94 9 281 37
415 61 33 5 103 16 155 24 91 13 262 67 451 143 42 17 123 46 180 66 57 19
158 55 224 81 262 103 314 114 353 72 12 -13 22 -32 22 -43 0 -24 36 -59 68
-67 13 -3 50 -2 83 3 64 9 123 44 309 180 87 64 102 74 310 204 85 53 193 124
240 158 152 109 204 143 273 182 99 55 195 101 247 119 25 9 99 37 165 62 66
26 176 66 245 90 69 23 157 55 195 70 39 15 90 33 115 40 25 7 99 33 165 59
173 69 204 80 365 134 80 27 159 56 175 64 17 9 107 41 200 73 94 31 185 63
204 72 19 9 69 28 110 43 42 15 93 34 114 43 139 62 191 80 336 118 126 32
153 34 285 18 267 -31 326 -40 381 -60 141 -50 279 -60 428 -30 168 34 426
125 478 168 9 8 50 27 90 42 41 16 128 56 195 89 108 54 128 68 188 134 46 50
86 110 129 190 98 185 230 328 302 328 54 0 82 -37 90 -123 9 -92 30 -152 64
-189 64 -68 232 -41 511 82 161 71 220 82 485 87 198 4 257 2 330 -12 102 -19
242 -57 330 -90 33 -12 88 -31 123 -40 75 -22 90 -36 70 -67 -10 -15 -37 -27
-89 -40 -136 -34 -333 -76 -384 -82 -27 -4 -72 -13 -100 -21 -27 -7 -81 -19
-120 -26 -38 -6 -101 -26 -138 -42 -99 -45 -75 -52 178 -52 164 0 226 4 285
17 299 70 831 172 1105 213 214 32 415 91 570 168 28 14 106 44 175 67 69 23
144 51 168 61 23 10 62 28 87 39 68 31 247 100 259 100 6 0 38 12 71 26 33 14
74 29 90 34 44 12 128 44 225 85 126 54 313 121 415 149 102 28 188 58 325
111 150 58 277 102 312 109 18 3 92 -1 163 -9 78 -9 157 -13 197 -9 78 8 140
-10 211 -61 42 -30 184 -29 253 2 27 12 83 36 124 54 131 55 163 70 234 112
82 47 130 61 147 41 20 -24 -1 -69 -57 -125 -78 -75 -98 -111 -145 -251 -22
-68 -56 -155 -75 -193 -55 -112 -41 -175 37 -175 33 1 52 7 204 65 39 15 84
30 100 34 17 4 53 18 80 30 28 13 73 30 100 38 28 8 66 23 86 33 19 10 67 28
105 40 38 12 107 37 154 55 47 18 123 47 170 65 47 17 114 43 150 57 248 99
327 129 420 160 207 70 276 98 370 151 160 91 266 177 300 242 24 47 65 75
141 99 187 57 342 114 444 161 33 15 89 37 125 48 36 11 108 35 160 55 52 19
118 40 145 47 28 8 68 28 90 46 72 58 196 128 440 248 634 313 832 408 899
432 22 8 64 28 95 45 118 65 277 142 307 149 18 4 38 4 45 -1 22 -13 14 -169
-16 -316 -65 -323 -72 -349 -99 -366 -24 -16 -216 -32 -545 -47 -225 -10 -228
-11 -441 -81 -72 -24 -156 -59 -445 -188 -22 -10 -67 -29 -100 -41 -50 -20
-171 -95 -390 -243 -22 -15 -85 -57 -140 -93 -55 -36 -122 -83 -150 -104 -27
-21 -81 -54 -120 -75 -38 -20 -117 -69 -175 -109 -58 -39 -145 -97 -195 -128
-49 -32 -103 -69 -120 -84 -16 -14 -42 -32 -58 -40 -15 -8 -79 -49 -143 -92
-64 -42 -123 -82 -132 -87 -161 -97 -153 -94 -382 -150 -102 -26 -221 -59
-265 -75 -83 -30 -266 -76 -440 -110 -55 -11 -145 -33 -200 -49 -55 -16 -145
-39 -200 -50 -55 -12 -145 -31 -200 -43 -55 -11 -140 -31 -190 -44 -49 -13
-126 -30 -170 -39 -44 -9 -134 -30 -200 -46 -147 -35 -184 -36 -333 -4 -383
83 -448 89 -473 43 -16 -30 -28 -289 -28 -623 -1 -158 -5 -306 -12 -340 -6
-33 -14 -93 -19 -134 -9 -85 -25 -106 -75 -96 -16 3 -82 8 -145 12 -68 3 -118
10 -122 17 -15 22 -8 58 17 90 25 34 25 70 -1 80 -18 7 -64 -10 -64 -23 0 -6
-27 -39 -60 -75 -57 -61 -64 -65 -125 -75 -75 -13 -363 1 -505 26 -47 8 -148
23 -225 33 -168 23 -313 46 -409 64 -73 14 -173 28 -332 45 -108 11 -172 34
-155 55 6 7 30 18 54 25 73 19 311 41 449 42 232 0 390 13 421 34 20 13 25 21
17 29 -6 6 -101 13 -238 17 -125 5 -279 13 -342 18 -377 35 -456 41 -555 41
-76 1 -125 6 -160 18 -56 19 -67 35 -106 157 -37 114 -98 185 -138 160 -16 -9
-13 -66 9 -180 18 -95 18 -101 1 -124 -22 -32 -47 -38 -184 -46 -128 -7 -502
-51 -562 -66 -54 -14 -154 -33 -305 -59 -214 -37 -501 -109 -690 -172 -42 -14
-90 -22 -135 -22 -63 0 -75 3 -115 32 -25 18 -72 51 -105 74 -33 23 -62 44
-65 47 -14 17 -105 69 -112 65 -12 -8 43 -76 134 -167 43 -43 78 -86 78 -95 0
-47 -63 -56 -122 -17 -21 14 -57 37 -79 52 -23 15 -53 43 -67 61 -14 19 -46
49 -70 68 -24 18 -99 86 -166 150 -137 130 -142 141 -80 192 35 28 138 84 188
102 21 8 26 14 18 22 -13 13 -161 -9 -267 -40 -38 -12 -119 -35 -180 -52 -162
-45 -242 -70 -315 -101 -36 -15 -94 -39 -130 -53 -36 -15 -90 -45 -120 -66
-30 -22 -87 -61 -127 -87 -75 -50 -172 -137 -200 -180 -16 -24 -16 -26 1 -38
21 -16 47 -8 169 48 104 48 129 53 152 27 18 -20 18 -21 -15 -55 -19 -19 -40
-35 -47 -35 -7 0 -19 -11 -25 -25 -6 -14 -18 -25 -26 -25 -7 0 -16 -9 -19 -20
-3 -10 -14 -22 -24 -25 -11 -4 -19 -16 -19 -27 0 -21 0 -21 23 -2 12 10 27 23
32 29 16 16 74 55 82 55 4 0 21 13 38 29 32 30 309 222 354 246 15 7 54 34 87
59 92 69 181 116 220 116 42 0 79 -34 119 -107 15 -29 47 -74 72 -102 24 -27
75 -89 113 -138 38 -48 87 -106 109 -129 l40 -41 -32 -29 c-18 -17 -59 -41
-92 -54 -33 -12 -98 -41 -145 -62 -47 -22 -105 -47 -130 -55 -41 -14 -224
-101 -260 -124 -8 -5 -25 -14 -37 -21 -26 -13 -30 -36 -9 -44 19 -7 62 6 166
51 138 59 391 135 450 135 14 0 31 -5 38 -12 11 -11 -12 -27 -208 -138 -104
-59 -178 -105 -279 -175 -56 -38 -126 -84 -154 -102 -173 -105 -208 -128 -267
-174 -36 -28 -80 -65 -98 -81 -47 -42 -82 -58 -112 -51 -26 6 -134 53 -182 79
-14 8 -35 14 -46 14 -11 0 -39 9 -63 20 -45 20 -109 27 -109 11 0 -11 61 -52
145 -96 191 -100 207 -127 128 -212 -85 -92 -153 -175 -179 -220 -16 -26 -50
-77 -76 -111 -27 -35 -57 -81 -68 -102 -11 -21 -24 -41 -29 -45 -5 -3 -16 -18
-24 -33 -8 -15 -31 -58 -51 -95 -20 -38 -36 -79 -36 -92 0 -13 -5 -25 -11 -27
-7 -2 -10 -10 -8 -17 6 -18 100 75 159 157 34 46 396 419 494 507 33 31 77 55
98 55 12 0 77 -25 142 -55 66 -30 123 -55 128 -55 17 0 104 -44 126 -63 30
-28 28 -64 -8 -121 -17 -26 -51 -111 -76 -189 -25 -78 -52 -162 -61 -187 -8
-25 -22 -85 -29 -135 -8 -49 -18 -103 -24 -120 -23 -74 -21 -249 4 -225 6 6
32 101 85 307 40 152 66 215 126 308 18 28 36 57 41 66 13 23 84 107 119 140
18 18 41 29 58 29 15 0 27 -2 27 -5 0 -15 -56 -170 -82 -223 -16 -34 -34 -88
-39 -120 -33 -208 -37 -250 -29 -342 11 -133 38 -285 61 -337 46 -109 52 -145
34 -240 -15 -81 -57 -227 -90 -313 -8 -19 -28 -80 -46 -135 -66 -207 -88 -255
-152 -317 -32 -32 -75 -65 -95 -75 -44 -20 -172 -113 -172 -125 0 -12 85 -10
117 4 15 6 62 19 103 29 41 10 125 29 185 44 61 14 137 30 170 36 73 12 169
34 390 91 44 11 98 22 120 25 219 25 258 33 290 62 l33 29 -30 6 c-17 3 -83 6
-148 6 -64 0 -131 5 -148 11 -36 12 -39 23 -52 161 -6 56 -14 106 -19 111 -21
21 -45 1 -57 -47 -7 -27 -21 -61 -32 -75 -10 -15 -34 -65 -52 -113 -18 -48
-43 -96 -54 -106 -24 -22 -305 -96 -329 -86 -39 15 -28 52 49 160 24 34 44 68
44 76 0 8 14 35 30 61 17 26 30 50 30 54 0 5 81 141 174 291 16 26 46 82 67
124 34 69 41 77 65 75 24 -2 29 3 37 38 10 46 2 261 -13 320 -15 65 -23 342
-11 430 42 320 41 316 162 471 38 49 76 103 85 119 74 134 437 466 604 550 28
14 101 60 163 102 89 61 317 183 341 183 3 0 70 28 148 61 152 66 257 100 378
125 41 8 111 23 155 33 106 25 256 50 330 55 33 2 146 12 250 21 258 23 672
16 860 -13 127 -20 334 -79 446 -128 31 -13 59 -24 63 -24 3 0 63 -27 133 -61
137 -66 236 -128 253 -159 18 -34 11 -121 -14 -170 -30 -60 -53 -62 -157 -10
-173 86 -358 144 -535 169 -43 6 -126 19 -184 28 -225 34 -696 -5 -935 -78
-454 -139 -621 -256 -953 -664 -9 -11 -49 -86 -90 -168 -121 -245 -177 -452
-152 -571 6 -30 14 -57 18 -60 4 -2 30 7 57 20 74 35 222 34 314 -1 161 -61
201 -94 201 -165 0 -65 -72 -163 -180 -243 -59 -45 -207 -121 -252 -131 -39
-9 -44 -42 -19 -118 11 -35 27 -92 34 -128 12 -62 14 -65 44 -68 23 -2 63 14
150 59 65 34 154 81 198 104 44 23 101 55 125 70 25 16 113 63 195 105 83 42
164 84 180 93 17 9 95 48 175 87 80 39 190 97 245 130 55 33 132 75 170 94 39
19 99 51 135 72 36 20 108 60 160 87 237 123 321 170 370 207 19 15 67 49 105
75 67 46 86 61 172 131 21 18 61 49 89 70 62 47 135 115 188 175 21 24 80 87
130 139 197 206 357 398 394 470 7 14 45 68 84 120 38 52 81 118 95 145 45 88
111 183 132 190 12 3 21 14 22 23 0 9 5 4 9 -11 6 -18 4 -47 -5 -80 -7 -29
-18 -88 -24 -133 -5 -44 -17 -101 -25 -125 -8 -24 -17 -60 -21 -79 -3 -19 -15
-73 -26 -120 -42 -177 -58 -247 -68 -307 -7 -34 -32 -133 -57 -220 -47 -163
-53 -182 -79 -293 -54 -228 -151 -520 -241 -725 -12 -27 -34 -79 -49 -115 -15
-36 -44 -105 -65 -155 -67 -156 -90 -214 -90 -228 0 -8 -9 -22 -20 -32 -11
-10 -20 -22 -20 -27 0 -9 -24 -65 -65 -153 -13 -27 -26 -63 -30 -80 -4 -16
-12 -37 -20 -45 -7 -8 -18 -40 -25 -70 -7 -30 -19 -61 -27 -68 -7 -7 -13 -22
-13 -32 0 -10 -8 -25 -18 -32 -10 -7 -24 -28 -31 -45 -7 -18 -17 -33 -21 -33
-4 0 -13 -19 -20 -42 -7 -24 -16 -45 -21 -49 -5 -3 -13 -26 -18 -52 -5 -26
-15 -55 -23 -65 -8 -9 -21 -33 -28 -52 -16 -41 -49 -91 -68 -103 -7 -5 -31
-45 -53 -90 -53 -107 -94 -172 -147 -235 -24 -28 -51 -64 -60 -81 -25 -46
-140 -235 -149 -246 -5 -5 -20 -30 -34 -55 -14 -25 -36 -63 -49 -85 -13 -22
-39 -69 -58 -105 -19 -36 -48 -90 -64 -120 -17 -30 -62 -100 -101 -155 -39
-55 -99 -143 -133 -195 -62 -94 -174 -248 -205 -279 -9 -9 -35 -42 -58 -74
-23 -31 -61 -79 -84 -105 -23 -27 -67 -77 -97 -113 -51 -59 -362 -372 -495
-497 -31 -30 -54 -59 -52 -65 6 -21 68 -20 96 0 14 11 53 35 86 53 33 19 101
62 151 96 49 34 180 112 290 174 300 170 466 272 669 411 50 34 122 78 160 98
80 42 115 65 203 136 157 126 327 281 517 471 93 94 247 244 340 335 219 211
444 445 536 556 144 174 209 228 209 174 0 -19 -90 -163 -109 -176 -6 -3 -25
-32 -41 -63 -16 -31 -48 -77 -70 -102 -23 -25 -56 -67 -75 -95 -18 -27 -44
-61 -56 -75 -13 -14 -50 -57 -81 -95 -31 -39 -79 -94 -107 -122 -106 -111
-146 -174 -125 -196 9 -9 43 10 90 52 23 20 59 51 80 69 137 117 196 171 339
305 185 175 256 246 380 381 50 53 114 122 143 153 29 31 65 72 80 92 28 37
54 68 112 135 57 66 106 129 120 156 7 14 24 40 38 57 20 27 27 31 43 22 30
-16 23 -56 -32 -169 -27 -58 -58 -123 -68 -145 -64 -138 -101 -207 -141 -260
-25 -33 -75 -103 -111 -155 -36 -52 -94 -134 -130 -183 -35 -48 -83 -115 -106
-150 -23 -34 -62 -88 -85 -121 -66 -91 -105 -146 -143 -203 -19 -29 -47 -66
-62 -82 -16 -16 -36 -40 -45 -53 -9 -13 -29 -39 -45 -59 -15 -21 -50 -66 -77
-100 -26 -35 -75 -93 -108 -129 -91 -99 -98 -107 -98 -114 0 -4 -10 -20 -21
-35 -12 -16 -19 -35 -16 -43 4 -9 8 -6 12 8 4 13 18 24 33 27 15 3 36 14 47
24 11 10 36 30 55 44 19 15 53 43 75 63 22 20 96 78 165 128 107 78 213 160
230 178 3 3 50 39 105 80 55 41 103 79 107 86 5 7 34 29 65 50 110 71 186 129
262 198 42 37 92 79 113 92 20 13 72 56 115 96 43 41 105 93 138 118 59 42
353 325 484 465 36 39 102 108 146 155 81 85 208 232 255 295 93 125 123 168
156 225 20 36 45 79 55 95 10 17 37 64 60 105 23 41 55 85 70 98 l28 23 7 -27
c5 -19 1 -40 -14 -68 -12 -23 -51 -117 -87 -211 -36 -93 -81 -201 -99 -240
-19 -38 -44 -99 -57 -135 -12 -36 -26 -69 -31 -74 -4 -6 -8 -17 -8 -25 0 -9
-16 -47 -36 -86 -20 -38 -46 -97 -59 -130 -12 -33 -32 -78 -44 -100 -11 -22
-21 -43 -21 -48 0 -5 -17 -39 -39 -75 -21 -37 -53 -100 -69 -140 -17 -40 -45
-92 -61 -116 -35 -50 -91 -169 -91 -193 0 -9 -35 -75 -79 -147 -43 -72 -89
-151 -101 -176 -12 -25 -40 -68 -61 -96 -22 -28 -39 -54 -39 -58 0 -3 -17 -28
-37 -55 -21 -27 -47 -64 -58 -82 -11 -18 -30 -50 -43 -71 -13 -21 -20 -43 -17
-48 9 -15 55 0 95 29 41 31 183 143 190 151 9 9 104 85 130 103 14 10 50 34
80 55 31 20 67 48 80 61 14 12 52 44 85 69 33 26 66 52 73 59 58 56 106 75
129 52 12 -12 -13 -90 -41 -134 -20 -30 -90 -197 -128 -305 -16 -47 -45 -113
-64 -147 -43 -79 -45 -116 -6 -132 56 -23 149 35 257 161 28 32 110 118 183
191 73 73 163 166 199 207 36 41 129 140 208 220 78 80 168 177 201 215 59 71
88 102 365 390 85 88 194 201 242 251 106 110 132 121 241 104 129 -20 135
-31 86 -150 -16 -40 -30 -77 -30 -82 0 -14 -105 -233 -149 -311 -28 -49 -27
-67 2 -60 27 7 14 -5 272 250 271 268 310 303 339 303 12 0 31 -9 40 -19 24
-26 10 -73 -64 -221 -67 -134 -89 -195 -73 -211 18 -18 56 1 121 61 32 30 68
62 78 70 101 81 159 132 214 188 176 180 220 210 235 163 7 -24 -19 -69 -110
-191 -39 -52 -95 -131 -125 -175 -29 -44 -77 -109 -105 -145 -63 -80 -108
-143 -160 -224 -22 -34 -66 -101 -97 -148 -32 -47 -58 -89 -58 -93 0 -4 -8
-19 -18 -33 -10 -15 -40 -67 -66 -117 -27 -49 -54 -97 -61 -105 -7 -8 -40 -55
-73 -103 -50 -74 -59 -92 -53 -115 l7 -27 100 1 c54 0 231 5 391 11 l293 11
52 31 c29 18 82 60 118 93 74 70 175 153 440 363 127 101 147 114 173 115 32
0 18 -39 -33 -90 -28 -27 -76 -80 -107 -117 -31 -38 -91 -104 -132 -147 -42
-44 -84 -87 -93 -98 -10 -10 -22 -18 -27 -18 -5 0 -14 -14 -21 -31 -17 -40 -3
-54 54 -51 58 2 291 49 340 68 74 29 208 54 287 54 80 0 161 20 239 60 249
126 436 225 532 282 54 32 73 38 98 33 28 -6 30 -9 30 -54 0 -27 -8 -84 -19
-127 -10 -44 -25 -113 -34 -154 -49 -232 -61 -273 -85 -301 -32 -39 -129 -89
-262 -136 -62 -22 -352 -171 -424 -217 -78 -51 -115 -55 -196 -21 -97 41 -139
45 -485 54 -286 8 -325 11 -370 29 -112 45 -406 45 -580 1 -89 -23 -212 -74
-277 -116 -24 -15 -77 -45 -118 -66 -41 -22 -77 -42 -80 -46 -7 -8 -110 -71
-117 -71 -3 0 -20 -11 -37 -24 -46 -35 -92 -56 -121 -56 -22 0 -29 8 -48 53
-12 28 -34 77 -50 107 -16 30 -35 72 -43 93 -37 102 -92 137 -218 137 -120 0
-391 -27 -566 -56 -47 -8 -143 -19 -215 -24 -147 -10 -203 -26 -323 -89 -65
-34 -98 -60 -150 -118 -67 -74 -111 -143 -112 -175 0 -25 -75 -94 -134 -124
-28 -14 -98 -42 -156 -61 -58 -20 -114 -42 -125 -49 -11 -7 -42 -20 -69 -29
-27 -9 -97 -39 -155 -67 -97 -45 -187 -80 -373 -144 -108 -36 -206 -88 -309
-161 -53 -38 -138 -90 -190 -116 -101 -50 -248 -117 -255 -117 -8 0 -198 -71
-234 -87 -185 -84 -477 -158 -595 -150 -95 6 -337 50 -476 86 -405 107 -870
159 -1297 148 -137 -4 -253 -12 -292 -21 -229 -51 -291 -69 -441 -132 -59 -24
-111 -44 -116 -44 -5 0 -34 -13 -64 -29 -30 -16 -81 -38 -114 -49 -57 -18 -69
-19 -255 -6 -500 33 -695 50 -711 60 -6 3 -103 9 -217 13 -216 8 -245 14 -258
53 -18 62 -53 74 -260 92 -165 15 -168 16 -264 97 -121 101 -161 115 -340 113
-230 -3 -345 -34 -481 -130 -82 -57 -112 -61 -326 -39 -162 17 -281 20 -873
23 -403 2 -778 -1 -910 -8 -273 -13 -532 -36 -620 -56 -36 -8 -110 -21 -165
-30 -115 -18 -295 -60 -343 -80 -18 -7 -61 -18 -95 -24 -34 -7 -82 -20 -107
-30 -25 -10 -90 -31 -145 -45 -55 -15 -124 -36 -152 -46 -217 -78 -282 -109
-408 -194 -33 -23 -89 -54 -125 -69 -36 -16 -88 -39 -116 -52 -28 -13 -62 -24
-75 -24 -13 0 -87 -13 -164 -29 -455 -93 -616 -168 -551 -257 14 -18 33 -19
393 -24 l378 -6 65 -28 c36 -15 66 -29 68 -31 2 -1 0 -14 -3 -28 -8 -29 -38
-43 -110 -50 -28 -3 -98 -20 -155 -37 -58 -18 -132 -38 -165 -46 -54 -13 -126
-38 -315 -111 -36 -13 -103 -45 -150 -69 -46 -25 -114 -57 -150 -71 -36 -14
-78 -33 -95 -43 -31 -18 -166 -54 -345 -91 -99 -20 -279 -69 -327 -89 -12 -5
-51 -16 -85 -25 -95 -24 -156 -48 -338 -133 -52 -24 -130 -57 -172 -73 -43
-15 -94 -37 -115 -47 -104 -52 -161 -64 -393 -78 -124 -8 -281 -20 -350 -28
-69 -8 -161 -17 -205 -21 -44 -4 -125 -13 -180 -21 -155 -23 -170 -22 -272 30
-50 25 -93 46 -97 46 -20 0 -324 155 -379 194 -36 25 -93 56 -128 70 -35 14
-109 43 -164 64 -55 22 -134 51 -175 65 -41 13 -118 39 -170 57 -52 17 -122
40 -155 50 -33 10 -98 33 -145 50 -47 18 -110 38 -140 46 -30 9 -74 22 -98 31
-63 24 -131 12 -211 -36 -72 -44 -146 -61 -261 -61 -36 0 -83 -5 -105 -11 -22
-6 -94 -17 -160 -25 -207 -23 -390 -64 -536 -120 -52 -20 -112 -43 -134 -51
-22 -9 -62 -16 -90 -17 -95 -2 -296 39 -443 89 -41 14 -79 25 -85 25 -7 0 -46
20 -87 45 -84 50 -112 54 -200 29 -152 -44 -279 -74 -312 -74 -31 0 -47 9 -93
50 -30 27 -67 53 -81 56 -35 9 -110 -11 -198 -51 -120 -55 -160 -72 -187 -78
-15 -4 -55 -27 -90 -52 -112 -79 -182 -111 -216 -98 -33 13 -1 182 48 254 10
14 21 37 24 51 6 24 4 27 -29 33 -20 4 -120 5 -223 2 -147 -4 -203 -9 -258
-25 -207 -59 -261 -75 -270 -82 -5 -4 -59 -24 -120 -45 -205 -71 -465 -186
-555 -245 -48 -32 -144 -80 -160 -80 -7 0 -10 -1761 -10 -4970 l0 -4970 16320
0 16320 0 0 6730 0 6729 -535 1 c-564 0 -575 1 -575 45 0 11 11 38 25 60 13
22 34 58 46 80 12 22 39 65 60 95 20 30 54 81 73 113 45 72 70 84 236 109 191
28 373 33 508 14 62 -9 124 -16 137 -16 l25 0 0 735 c0 649 -2 734 -15 729 -8
-4 -15 -13 -15 -21 0 -8 -24 -58 -54 -112 -29 -53 -64 -125 -77 -161 -13 -36
-31 -78 -40 -95 -9 -16 -20 -41 -24 -55 -4 -14 -26 -65 -50 -115 -23 -49 -46
-101 -50 -114 -4 -13 -20 -45 -36 -70 -16 -25 -38 -64 -50 -86 -37 -68 -58
-92 -84 -97 -42 -9 -52 25 -21 70 40 58 52 100 33 119 -10 10 -24 13 -40 9
-42 -10 -124 -105 -174 -201 -26 -49 -61 -112 -78 -140 -70 -112 -234 -423
-262 -499 -10 -26 -40 -74 -67 -105 -26 -31 -59 -68 -71 -83 -34 -38 -128
-167 -152 -208 -80 -137 -143 -231 -180 -270 -23 -26 -60 -71 -81 -100 -21
-30 -49 -66 -62 -80 -46 -48 -95 -105 -124 -145 -16 -22 -43 -56 -60 -76 -17
-20 -46 -55 -64 -78 -18 -23 -61 -60 -95 -83 -122 -82 -258 -232 -369 -404
-80 -126 -110 -190 -168 -363 -55 -166 -95 -246 -137 -278 -61 -44 -249 -395
-283 -528 -10 -38 -25 -88 -33 -110 -28 -77 -129 -266 -165 -310 -74 -88 -108
-130 -162 -200 -162 -211 -242 -304 -270 -313 -18 -7 -32 -7 -35 -2 -9 14 27
126 64 198 10 21 24 55 31 77 7 22 38 103 70 180 32 77 71 173 86 214 16 40
73 153 127 250 55 97 131 237 169 311 39 74 83 158 98 185 107 193 135 241
140 245 4 3 30 48 58 100 28 52 68 119 89 147 129 176 355 520 373 568 6 15
25 46 44 68 18 23 58 90 89 149 69 131 115 217 177 328 71 127 160 317 216
465 15 39 41 102 59 140 18 39 44 95 58 125 46 101 74 165 92 215 10 28 27 66
39 85 11 19 81 157 157 305 75 149 153 302 173 340 33 66 36 76 36 165 0 109
-2 105 131 270 42 52 84 110 93 128 9 18 35 51 57 73 49 49 80 51 123 6 65
-68 83 -68 159 1 106 96 132 132 158 222 12 45 42 79 68 80 11 0 13 -12 8 -58
-3 -31 -8 -65 -12 -74 -6 -14 -2 -18 19 -18 18 0 43 16 79 50 56 54 101 74
157 68 51 -5 68 -40 52 -106 -10 -38 -10 -54 -1 -75 7 -15 15 -27 19 -27 4 0
15 -16 26 -35 10 -19 22 -35 26 -35 5 0 8 693 8 1541 l0 1541 -27 -7 c-16 -3
-55 -19 -88 -35 -33 -15 -103 -42 -155 -60 -52 -18 -129 -48 -170 -67 -41 -20
-142 -65 -225 -100 -82 -35 -177 -79 -210 -97 -33 -17 -91 -43 -130 -55 -38
-13 -86 -31 -105 -41 -55 -27 -366 -130 -394 -130 -20 0 -183 -67 -291 -120
-55 -26 -125 -59 -155 -72 -46 -19 -160 -89 -280 -171 -14 -10 -42 -28 -62
-42 -127 -85 -224 -195 -303 -344 -16 -31 -50 -76 -76 -101 -25 -25 -54 -60
-63 -77 -15 -31 -15 -35 1 -69 12 -23 34 -45 63 -61 25 -14 48 -30 52 -37 9
-13 -16 -53 -49 -81 -13 -11 -63 -66 -111 -123 -393 -462 -365 -421 -343 -500
14 -48 0 -82 -71 -169 -102 -124 -125 -172 -97 -200 23 -23 14 -87 -24 -165
-20 -43 -37 -80 -37 -84 0 -8 -57 -164 -76 -209 -40 -94 -57 -160 -64 -245 -7
-87 -12 -102 -60 -195 -29 -55 -64 -116 -80 -135 -15 -19 -30 -44 -34 -56 -3
-11 -54 -69 -112 -130 -116 -119 -130 -144 -196 -334 -22 -63 -49 -140 -60
-170 -10 -30 -30 -93 -43 -140 -13 -47 -35 -116 -50 -155 -15 -38 -40 -115
-57 -170 -16 -55 -40 -131 -53 -170 -13 -38 -34 -108 -48 -155 -22 -74 -42
-129 -102 -290 -7 -19 -32 -72 -54 -117 -23 -46 -56 -127 -74 -180 -18 -54
-40 -109 -49 -123 -10 -14 -31 -58 -48 -99 -16 -41 -34 -79 -39 -85 -4 -6 -18
-36 -29 -66 -11 -30 -45 -107 -75 -170 -30 -63 -65 -147 -77 -185 -13 -39 -33
-91 -46 -117 -13 -26 -24 -52 -24 -58 0 -6 -35 -81 -77 -168 -43 -87 -96 -196
-118 -242 -22 -47 -54 -107 -71 -135 -39 -64 -134 -258 -134 -275 0 -7 -13
-42 -30 -77 -16 -34 -30 -65 -30 -68 0 -3 -26 -60 -59 -128 -32 -67 -62 -131
-65 -143 -9 -30 -57 -72 -86 -75 -39 -4 -69 10 -76 36 -3 13 2 54 11 93 16 65
16 72 -1 133 -26 92 -29 187 -9 235 26 62 95 283 110 354 21 97 79 252 120
320 9 14 30 52 47 85 17 33 43 78 58 100 15 22 41 67 59 100 17 33 70 99 116
148 113 118 162 211 214 407 13 47 32 110 43 140 10 30 28 88 39 128 10 39 28
107 40 150 11 42 29 111 38 152 20 83 81 258 166 480 30 79 62 178 69 220 16
79 83 291 135 425 44 111 72 256 111 580 11 94 29 208 40 255 11 47 29 121 40
165 10 44 24 103 29 130 6 28 25 100 41 160 17 61 39 142 49 180 10 39 30 102
43 140 71 199 84 225 166 325 70 86 98 158 131 342 37 203 72 310 117 360 39
43 64 98 64 139 0 39 -36 57 -73 38 -31 -17 -101 -57 -332 -189 -156 -89 -303
-170 -550 -304 -143 -78 -178 -98 -198 -111 -12 -7 -60 -29 -107 -48 -166 -67
-394 -165 -480 -206 -25 -11 -49 -21 -53 -21 -24 0 -173 -79 -242 -129 -44
-31 -105 -72 -135 -91 -104 -64 -205 -143 -275 -215 -38 -39 -90 -87 -115
-106 -46 -36 -341 -236 -440 -298 -30 -19 -82 -55 -114 -79 -69 -52 -119 -75
-160 -74 -16 0 -72 16 -125 36 -150 54 -229 74 -321 81 -88 7 -109 15 -128 51
-24 44 10 98 87 138 360 186 431 227 498 292 46 43 53 55 53 88 0 20 -5 46
-11 57 -18 34 -12 153 9 196 11 21 27 70 37 108 27 110 32 120 162 312 152
226 257 442 338 693 18 58 59 170 90 250 32 80 106 287 165 460 133 388 158
456 232 635 11 28 27 70 34 95 39 124 136 395 164 455 8 18 26 78 80 265 38
132 43 145 50 155 4 6 20 51 35 100 15 50 39 113 55 140 15 28 57 106 92 175
36 69 75 141 87 160 87 136 148 261 165 335 28 122 36 164 46 240 6 39 14 99
20 135 6 36 14 122 20 191 5 69 16 159 25 200 8 41 20 115 25 164 55 545 90
805 120 880 7 17 25 73 40 125 16 52 46 145 68 205 67 184 74 227 70 427 -3
172 -4 177 -28 203 -14 15 -43 36 -65 47 -22 12 -42 24 -45 29 -6 8 -123 76
-195 112 -34 17 -53 19 -145 14 -71 -3 -131 -13 -185 -30 -44 -14 -125 -37
-180 -51 -55 -15 -113 -34 -130 -42 -16 -9 -73 -31 -125 -50 -52 -19 -104 -38
-115 -44 -11 -5 -58 -23 -105 -40 -272 -101 -430 -161 -495 -190 -23 -10 -54
-22 -70 -25 -37 -8 -129 -41 -170 -61 -33 -15 -226 -85 -315 -113 -51 -16
-185 -70 -270 -108 -19 -9 -80 -31 -135 -49 -55 -18 -131 -45 -170 -60 -38
-14 -119 -44 -180 -66 -60 -21 -132 -50 -160 -63 -54 -26 -254 -105 -267 -105
-7 0 -68 -27 -184 -80 -33 -16 -90 -38 -125 -49 -35 -12 -73 -25 -84 -30 -116
-53 -159 -71 -167 -71 -6 0 -38 -12 -72 -26 -33 -14 -70 -30 -81 -34 -11 -5
-49 -22 -85 -38 -36 -16 -105 -43 -155 -60 -123 -41 -250 -102 -311 -148 -28
-22 -104 -94 -168 -161 -106 -110 -183 -174 -254 -212 -15 -7 -53 -31 -84 -52
-32 -22 -60 -39 -63 -39 -3 0 -29 -17 -58 -38 -84 -62 -197 -119 -272 -137
-38 -9 -99 -29 -135 -43 -59 -24 -77 -27 -200 -26 -93 0 -173 7 -257 22 -158
29 -172 28 -245 -10 -37 -19 -81 -33 -112 -36 -48 -4 -56 0 -129 47 -42 28
-99 62 -125 76 -79 43 -187 108 -223 135 -19 14 -67 45 -106 69 -102 61 -144
105 -204 217 -63 117 -98 159 -158 188 -107 52 -122 77 -96 156 18 56 62 107
220 261 239 233 357 280 666 264 136 -7 161 -5 364 35 55 11 136 39 355 123
186 71 265 94 370 107 47 6 114 15 150 20 36 5 103 12 150 15 101 8 406 58
523 86 80 19 181 61 340 141 43 22 149 62 235 90 86 28 195 66 241 85 46 19
132 52 190 73 58 21 129 47 156 59 28 11 111 39 185 62 74 23 158 52 185 64
28 13 95 39 150 60 55 20 125 47 155 60 30 12 102 42 159 66 57 23 124 57 147
76 73 55 136 82 258 112 64 16 122 33 129 39 6 5 59 21 117 36 140 35 298 89
379 130 36 19 104 52 151 74 47 22 146 69 220 106 135 66 210 96 350 142 93
31 113 44 175 113 67 74 100 106 160 154 l50 40 86 -6 c114 -7 150 2 272 72
56 32 152 84 212 116 61 32 137 74 170 94 75 46 302 158 415 205 47 19 103 43
125 54 22 10 81 29 131 42 99 25 166 65 339 205 52 42 116 82 163 103 42 18
91 39 107 47 108 49 220 87 278 95 86 11 178 -2 217 -30 37 -26 75 -98 84
-160 12 -75 35 -86 106 -50 44 23 108 26 132 8 9 -7 35 -44 58 -83 49 -82 97
-135 121 -135 23 0 49 35 138 185 150 253 375 493 606 646 50 33 101 68 115
79 48 39 160 89 212 95 108 13 135 -26 91 -130 -65 -157 -78 -213 -103 -450
-18 -170 -39 -290 -70 -405 -15 -58 -30 -118 -33 -135 -6 -41 -56 -226 -112
-420 -59 -202 -64 -253 -36 -329 27 -73 26 -95 -3 -137 -14 -19 -53 -86 -87
-149 -35 -63 -89 -155 -121 -203 -59 -91 -71 -121 -113 -296 -28 -112 -41
-203 -80 -526 -51 -417 -51 -422 -81 -460 -14 -19 -30 -35 -34 -35 -4 0 -66
-56 -138 -124 -133 -126 -178 -154 -227 -142 -47 12 -50 30 -50 341 1 303 5
350 54 541 11 43 25 120 31 169 6 50 17 121 25 160 8 38 15 80 15 92 0 13 9
49 19 80 11 32 23 81 26 108 3 28 14 88 25 135 10 47 23 132 30 189 11 99 10
105 -8 124 -40 40 -69 -18 -82 -166 -7 -73 -20 -132 -45 -207 -20 -58 -45
-132 -56 -166 -14 -45 -26 -64 -44 -72 -23 -11 -27 -9 -35 14 -14 35 -13 57
10 199 11 68 17 131 14 140 -17 42 -136 61 -184 29 -40 -27 -111 -97 -125
-124 -17 -33 -34 -121 -45 -245 -10 -103 -39 -203 -98 -340 -17 -38 -47 -114
-66 -167 -36 -98 -44 -118 -77 -198 -10 -25 -32 -83 -49 -130 -27 -72 -109
-246 -149 -316 -19 -34 -98 -208 -106 -234 -4 -14 -15 -38 -25 -55 -17 -28
-53 -100 -159 -314 -22 -46 -41 -89 -41 -96 0 -8 -23 -62 -51 -122 -79 -167
-95 -203 -122 -278 -27 -74 -55 -141 -116 -270 -21 -44 -55 -120 -76 -170 -20
-49 -52 -123 -71 -162 -19 -40 -34 -75 -34 -77 0 -3 -38 -84 -85 -180 -47 -96
-85 -179 -85 -184 0 -5 -13 -35 -29 -65 -16 -31 -35 -82 -41 -114 -6 -32 -20
-96 -30 -143 -10 -47 -30 -141 -45 -210 -69 -324 -122 -489 -179 -560 -17 -21
-56 -74 -87 -117 -30 -43 -95 -134 -144 -203 -49 -69 -92 -127 -95 -130 -8 -7
-91 -118 -120 -161 -14 -20 -64 -88 -112 -152 -48 -63 -106 -150 -129 -193
-22 -44 -55 -104 -73 -134 -18 -30 -49 -84 -68 -120 -20 -36 -49 -90 -66 -120
-17 -30 -56 -113 -88 -185 -55 -126 -68 -159 -150 -385 -31 -88 -57 -134 -158
-283 -67 -97 -149 -223 -183 -280 -34 -56 -77 -127 -96 -157 -70 -114 -136
-228 -178 -305 -37 -69 -90 -148 -109 -165 -4 -3 -25 -32 -48 -65 -23 -33 -57
-77 -77 -99 -23 -25 -35 -48 -35 -67 0 -39 20 -38 87 7 29 19 86 49 126 65 39
17 88 39 107 49 92 49 325 158 375 176 22 8 55 24 75 36 59 35 103 60 145 81
151 77 448 268 676 437 142 104 192 140 289 203 41 27 86 59 100 71 14 13 70
51 125 86 55 35 127 87 160 116 77 67 275 206 390 273 151 90 227 144 299 217
71 71 85 96 165 287 59 140 66 178 51 300 -15 122 -23 145 -52 156 -27 10 -36
6 -145 -66 -45 -30 -102 -64 -125 -77 -101 -53 -165 -90 -192 -113 -16 -13
-72 -49 -125 -80 -53 -31 -109 -66 -126 -78 -16 -12 -64 -40 -105 -61 -127
-66 -328 -190 -375 -233 -51 -46 -163 -121 -221 -148 -30 -14 -81 -27 -112
-30 -49 -5 -60 -2 -76 16 -18 20 -18 22 -2 59 27 60 262 292 434 430 31 25 84
71 117 101 34 31 105 92 160 136 54 44 103 85 109 90 34 32 262 196 421 303
138 93 152 107 235 217 61 82 176 211 290 325 87 87 345 329 390 364 25 20 63
51 85 69 22 17 71 56 110 86 38 30 72 57 75 60 8 10 190 153 275 216 44 33 89
68 100 78 11 10 54 44 95 74 41 31 100 75 130 97 30 23 57 43 60 46 4 4 116
94 170 136 8 7 57 48 108 91 51 43 128 103 171 133 62 43 368 293 391 319 14
16 110 100 144 126 34 25 114 97 201 180 90 86 556 485 605 518 32 22 63 21
84 -2 15 -16 22 -17 52 -8 l34 10 0 234 c0 265 11 240 -100 223 -79 -13 -161
-32 -271 -66 -46 -13 -124 -34 -174 -45 -143 -32 -295 -69 -365 -89 -36 -10
-108 -31 -160 -45 -52 -14 -124 -34 -160 -44 -64 -18 -145 -39 -186 -48 -12
-3 -28 3 -38 13 -22 22 -14 74 18 118 13 17 39 60 58 96 20 36 50 92 68 125
18 33 39 67 47 76 18 21 83 129 83 138 0 13 116 185 136 203 28 24 88 48 122
48 48 0 68 -29 75 -108 14 -172 89 -208 297 -142 52 16 104 34 115 39 11 5 43
17 70 27 136 48 192 81 234 137 29 39 53 60 85 73 l46 19 0 1113 c0 636 -4
1112 -9 1112 -5 0 -21 -26 -36 -57 -15 -32 -60 -125 -100 -208 -41 -82 -90
-193 -110 -245 -20 -52 -57 -149 -82 -215 -76 -200 -90 -222 -177 -265 -17 -8
-57 -42 -90 -75 -34 -33 -75 -71 -92 -85 -38 -32 -63 -69 -98 -147 -24 -57
-28 -78 -34 -230 l-7 -168 -44 -75 c-25 -41 -52 -89 -60 -105 -9 -17 -24 -41
-34 -55 -10 -14 -60 -97 -112 -185 -51 -88 -109 -187 -130 -220 -20 -33 -60
-100 -89 -150 -144 -246 -173 -295 -211 -355 -22 -36 -59 -100 -80 -143 -22
-42 -64 -110 -93 -150 -30 -39 -65 -94 -79 -122 -45 -89 -61 -106 -97 -103
-30 3 -31 5 -34 51 -2 27 1 54 7 61 6 7 17 41 25 77 9 35 25 90 36 121 16 46
20 78 18 160 -3 99 -2 106 29 168 18 36 49 91 68 123 44 71 56 136 122 687 21
183 35 222 103 294 132 139 139 154 216 429 14 50 34 124 45 162 35 121 129
584 129 630 0 13 -14 53 -31 90 -32 67 -32 67 -25 183 14 238 56 587 90 747 9
39 20 102 25 141 12 80 41 156 87 229 18 28 42 72 54 98 12 26 35 61 50 77
l28 30 411 0 411 0 0 3220 0 3220 -16320 0 -16320 0 0 -8680z m29941 -999 c22
-18 24 -29 30 -143 7 -124 18 -168 57 -218 10 -14 24 -35 31 -48 15 -29 41
-174 41 -232 0 -53 41 -210 64 -245 27 -40 47 -46 94 -25 85 38 118 65 313
257 143 140 160 149 180 95 6 -15 6 -36 0 -56 -41 -136 -53 -202 -57 -296 -8
-173 -11 -188 -45 -206 -38 -19 -204 -35 -419 -39 -91 -2 -235 -8 -320 -14
-85 -6 -227 -16 -316 -22 -191 -14 -231 -9 -245 29 -9 21 -6 42 11 97 13 38
28 79 35 90 7 11 25 52 40 90 14 39 37 95 50 125 14 30 48 116 76 190 47 126
142 342 160 365 4 6 21 46 39 90 40 101 70 135 121 135 21 0 47 -8 60 -19z
m-16184 -1567 c168 -56 309 -98 349 -103 69 -8 187 -1 282 18 80 16 123 4 327
-93 49 -24 125 -56 168 -71 108 -38 128 -79 56 -116 -66 -33 -202 -38 -304 -9
-44 12 -91 28 -105 36 -54 30 -179 54 -278 54 -125 0 -217 -24 -270 -71 -21
-19 -74 -63 -116 -98 -86 -71 -91 -89 -38 -137 45 -40 103 -47 228 -30 51 7
63 5 77 -9 34 -34 17 -50 -110 -104 -116 -49 -180 -82 -250 -127 -28 -19 -56
-34 -61 -34 -5 0 -27 -13 -49 -29 -117 -84 -241 -121 -412 -121 -155 0 -184 9
-210 63 -12 24 -21 51 -21 61 0 22 -24 69 -44 85 -50 42 -337 84 -421 63 -129
-33 -260 -90 -405 -176 -82 -48 -188 -94 -257 -111 -59 -14 -80 -15 -148 -5
-44 7 -112 15 -150 19 -90 8 -112 22 -219 142 -47 53 -93 99 -102 103 -31 12
-63 5 -170 -35 -170 -64 -190 -80 -237 -202 -32 -85 -79 -160 -115 -183 -89
-58 -237 -137 -287 -152 -22 -6 -130 -19 -240 -27 -255 -21 -550 -73 -627
-111 -15 -8 -64 -26 -108 -40 -76 -24 -83 -24 -106 -9 -51 33 -13 85 96 131
36 15 88 44 115 64 28 20 97 62 155 94 58 32 112 62 120 67 8 5 40 20 70 34
30 14 71 36 90 49 144 93 147 95 335 202 66 37 149 88 185 113 36 24 76 52 90
61 14 9 60 40 102 68 43 29 82 52 87 52 5 0 56 26 113 57 56 31 138 74 182 95
63 31 97 58 170 133 57 57 111 102 142 117 27 13 58 29 69 35 11 6 31 15 45
21 14 6 59 26 100 45 41 19 91 38 110 42 19 3 59 15 88 26 61 22 93 24 110 7
17 -17 15 -63 -3 -78 -14 -11 -30 -37 -95 -155 -33 -59 -50 -137 -38 -182 10
-37 49 -69 99 -78 28 -5 39 -2 60 17 13 13 45 39 69 58 25 19 50 39 56 45 6 5
55 48 108 94 97 85 206 208 206 234 0 22 57 105 86 124 25 16 61 19 314 24
181 4 321 12 385 22 213 34 216 34 552 -79z m8113 -2689 c-6 -38 -20 -101 -31
-140 -11 -38 -27 -101 -35 -140 -9 -38 -19 -74 -24 -80 -4 -5 -17 -42 -29 -81
-24 -81 -28 -139 -8 -131 47 20 68 34 73 50 9 28 27 20 21 -10 -3 -16 -30
-102 -61 -193 -30 -91 -82 -248 -115 -350 -33 -102 -75 -219 -95 -260 -19 -41
-38 -88 -42 -105 -4 -16 -19 -55 -34 -85 -15 -30 -45 -98 -65 -150 -21 -52
-44 -104 -51 -115 -7 -11 -22 -48 -33 -82 -21 -61 -87 -193 -122 -245 -11 -14
-19 -29 -19 -32 0 -8 -71 -160 -112 -241 -17 -33 -57 -104 -89 -157 -33 -54
-59 -102 -59 -108 0 -17 -135 -275 -182 -347 -16 -24 -28 -45 -28 -47 0 -3
-14 -29 -32 -58 -17 -29 -47 -84 -66 -123 -19 -38 -57 -103 -85 -144 -27 -41
-66 -108 -85 -149 -18 -41 -38 -80 -44 -86 -9 -10 -36 -52 -57 -86 -5 -8 -19
-38 -31 -66 -26 -59 -83 -119 -105 -110 -23 8 -19 72 4 88 11 8 25 26 32 41 7
15 16 27 20 27 12 0 69 115 69 139 0 11 9 28 19 38 10 10 24 37 30 61 7 23 16
42 21 42 5 0 12 10 16 23 9 30 51 126 69 157 38 65 250 510 280 585 15 39 35
86 45 105 20 38 70 184 70 202 0 6 8 30 19 52 10 23 35 84 55 136 42 107 43
111 84 200 16 36 34 81 40 100 6 19 23 69 38 110 14 41 32 96 39 122 7 25 16
51 20 57 3 6 15 39 25 74 10 34 34 107 54 162 37 102 40 112 76 250 12 44 28
94 36 112 8 17 18 51 23 75 9 46 82 306 132 473 63 211 77 262 89 325 12 69
43 189 58 229 8 22 9 22 25 6 15 -15 17 -30 11 -119 -4 -62 -3 -110 3 -120 9
-15 14 -10 40 35 17 30 35 70 42 90 7 21 20 47 30 58 10 12 23 43 27 69 l9 47
3 -55 c2 -30 -1 -86 -8 -125z m-17512 -476 c66 -23 48 -48 -121 -174 -59 -44
-124 -92 -145 -107 -98 -70 -145 -128 -206 -254 -45 -94 -71 -114 -148 -114
-33 0 -96 9 -141 21 -114 29 -167 19 -286 -56 -55 -34 -143 -85 -148 -85 -4 0
-14 -6 -22 -14 -9 -8 -32 -23 -51 -34 -19 -11 -72 -41 -117 -67 -86 -49 -152
-76 -363 -151 -366 -130 -505 -166 -525 -134 -10 16 29 49 195 169 82 59 110
79 165 114 28 17 81 56 119 87 38 30 117 90 175 132 58 42 133 97 167 122 33
25 80 57 105 70 24 14 76 50 114 80 39 30 144 105 234 167 201 137 276 166
466 179 126 8 446 47 454 55 8 8 47 5 79 -6z m11992 -248 c0 -9 -173 -169
-206 -191 -12 -8 -64 -54 -116 -101 -132 -122 -153 -139 -190 -150 -39 -11
-93 -3 -109 17 -7 9 -31 14 -66 14 l-54 0 24 -24 c13 -13 40 -29 60 -35 44
-15 53 -27 35 -48 -11 -14 -30 -15 -140 -9 -69 3 -133 9 -141 12 -19 7 -28 51
-12 64 6 5 36 16 66 23 41 11 57 20 67 40 12 25 70 77 86 77 4 0 27 14 51 30
24 17 46 30 49 30 3 0 127 60 277 133 190 94 278 133 295 129 13 -2 24 -7 24
-11z m15148 -104 c3 -22 -11 -44 -63 -107 -80 -96 -153 -158 -277 -236 -51
-32 -95 -61 -98 -64 -3 -3 -32 -23 -65 -45 -33 -21 -65 -44 -72 -50 -7 -5 -44
-32 -82 -60 -63 -44 -158 -116 -276 -210 -21 -16 -75 -58 -119 -93 -45 -34
-115 -96 -156 -138 -58 -57 -80 -73 -94 -68 -32 12 -8 74 66 169 5 6 25 35 45
65 20 30 39 57 43 60 4 3 20 25 35 50 73 119 142 219 177 257 21 24 38 48 38
56 0 29 105 113 200 157 63 30 113 50 124 50 7 0 40 13 72 29 32 16 102 46
154 65 52 20 140 61 195 91 113 61 148 66 153 22z m-11511 -415 c81 -22 163
-58 215 -94 26 -18 30 -18 73 -3 59 20 72 19 85 -4 34 -65 -12 -147 -168 -299
-130 -126 -183 -169 -239 -191 -17 -7 -39 -21 -49 -32 -31 -34 -64 -24 -134
44 -132 127 -216 161 -341 136 -74 -14 -107 -41 -154 -120 -59 -101 -58 -190
6 -310 10 -20 19 -43 19 -50 -1 -28 -47 -68 -115 -99 -38 -18 -77 -39 -86 -47
-9 -7 -48 -30 -85 -50 -38 -19 -76 -41 -84 -48 -25 -22 -213 -112 -280 -135
-101 -34 -111 -28 -94 56 4 21 1 40 -9 55 -8 14 -17 62 -21 109 -3 47 -11 103
-18 125 -7 23 -12 106 -12 195 0 143 2 161 28 237 36 108 92 178 196 248 25
16 47 32 50 35 3 4 23 17 45 30 22 13 66 43 98 66 59 44 118 67 197 79 25 4
64 20 87 36 63 42 209 58 488 55 189 -2 232 -6 302 -24z m12411 -508 c37 -25
32 -71 -33 -309 -15 -55 -35 -136 -45 -180 -10 -44 -28 -114 -40 -155 -36
-125 -49 -180 -66 -285 -9 -55 -23 -115 -31 -133 -15 -32 -163 -164 -238 -213
-22 -14 -66 -31 -98 -37 -69 -14 -100 -33 -188 -119 -73 -72 -91 -79 -213 -82
-125 -4 -218 -32 -311 -96 -44 -29 -103 -76 -131 -102 -29 -26 -85 -78 -125
-114 -358 -321 -516 -479 -648 -647 -102 -132 -142 -161 -168 -126 -23 30 -8
328 36 705 4 41 17 95 28 120 30 67 363 397 549 544 190 150 236 185 246 185
5 0 42 22 81 48 40 26 146 85 237 131 91 45 192 99 225 120 157 98 459 251
497 251 7 0 26 9 43 20 16 10 61 24 101 31 66 11 71 13 66 35 -3 19 -12 24
-48 30 -24 3 -63 3 -86 0 -24 -3 -88 -11 -142 -16 -117 -12 -376 -71 -526
-120 -30 -10 -79 -23 -108 -29 -30 -6 -63 -18 -75 -26 -23 -16 -73 -20 -81 -7
-10 16 23 49 151 148 182 142 267 197 353 228 41 15 84 31 95 36 11 4 36 14
55 21 19 7 42 18 50 25 19 16 142 54 285 88 209 49 268 55 303 30z m-1811
-2476 c37 -41 37 -76 -2 -240 -20 -84 -52 -200 -70 -258 -18 -58 -38 -125 -45
-150 -7 -25 -35 -88 -63 -140 -28 -52 -71 -133 -95 -180 -25 -47 -50 -92 -57
-100 -15 -17 -104 -177 -146 -262 -34 -69 -102 -138 -134 -138 -29 0 -53 23
-61 57 -8 31 11 146 36 210 10 27 30 102 44 168 15 66 35 154 46 195 11 41 24
100 29 130 6 30 15 79 21 108 5 29 10 97 10 151 0 125 12 148 143 270 202 188
292 235 344 179z m-1619 -353 c-4 -84 -8 -99 -62 -220 -71 -161 -70 -156 -53
-180 13 -17 25 -19 96 -17 106 3 151 -14 151 -58 0 -38 -11 -42 -147 -64 -133
-21 -291 -21 -321 0 -31 21 -30 74 3 112 14 17 48 74 76 128 28 55 59 110 69
124 10 14 39 69 64 123 57 121 94 171 114 154 11 -9 13 -32 10 -102z m564
-295 c15 -29 17 -63 17 -225 -1 -231 -32 -480 -74 -590 -14 -38 -34 -92 -44
-119 -22 -57 -70 -110 -93 -101 -22 9 -28 36 -28 125 0 74 -34 327 -65 485
-25 128 -22 187 16 253 42 76 125 179 158 197 14 8 42 14 61 12 29 -2 38 -8
52 -37z m1156 -103 c24 -19 11 -98 -35 -197 -68 -148 -84 -177 -107 -189 -33
-18 -90 -8 -131 23 -30 23 -32 28 -25 66 4 22 22 64 41 93 18 29 47 79 65 112
38 70 69 102 104 107 32 4 72 -2 88 -15z m-838 -25 c52 -39 30 -142 -30 -142
-33 0 -150 51 -160 71 -22 40 -3 79 45 92 36 10 119 -2 145 -21z"/>
<path d="M19405 17151 c-3 -5 -31 -15 -63 -22 -66 -15 -67 -16 -142 -91 -59
-59 -76 -98 -58 -132 9 -17 11 -16 25 13 9 17 19 31 23 31 4 0 13 13 19 29 11
26 60 71 77 71 4 0 18 10 31 22 22 20 36 23 158 26 75 3 132 8 129 13 -3 5
-16 9 -29 9 -28 0 -75 20 -75 32 0 11 -87 10 -95 -1z"/>
<path d="M19735 17020 c3 -5 15 -10 26 -10 11 0 17 5 14 10 -3 6 -15 10 -26
10 -11 0 -17 -4 -14 -10z"/>
<path d="M32310 25849 c-39 -24 -51 -38 -80 -94 -22 -44 -90 -239 -90 -259 0
-8 -8 -35 -19 -62 -28 -74 -67 -207 -96 -329 -15 -60 -33 -123 -41 -140 -7
-16 -29 -93 -48 -170 -19 -77 -46 -178 -60 -225 -105 -347 -126 -434 -134
-539 -4 -60 -2 -73 9 -69 38 13 170 337 204 503 26 127 73 215 163 309 42 45
85 97 94 116 105 219 190 418 186 437 -6 31 -34 38 -72 18 -34 -19 -36 -19
-55 0 -12 10 -21 25 -21 34 0 15 31 105 50 146 28 59 92 266 94 300 1 36 -2
40 -24 43 -14 1 -41 -7 -60 -19z"/>
<path d="M32605 21236 c-9 -19 -25 -42 -36 -52 -26 -23 -25 -83 2 -118 12 -15
23 -44 26 -65 10 -72 -85 -223 -155 -245 -11 -4 -23 -13 -26 -21 -5 -15 -93
-58 -141 -69 -84 -19 -255 -101 -320 -153 -24 -20 -189 -123 -195 -123 -14 0
-174 -93 -262 -152 -48 -32 -90 -58 -94 -58 -5 0 -151 -100 -179 -123 -5 -4
-47 -34 -91 -65 -45 -31 -114 -84 -154 -117 -289 -238 -323 -269 -487 -451
-123 -136 -147 -172 -172 -266 -31 -113 -36 -129 -64 -183 -44 -87 -55 -121
-77 -232 -11 -60 -34 -137 -51 -173 -61 -130 -25 -181 81 -115 19 12 71 40
115 62 212 108 266 140 426 250 94 65 185 127 203 138 18 11 50 34 72 51 67
52 106 72 189 94 73 19 218 85 255 114 8 7 53 32 100 55 47 24 112 62 145 86
33 23 94 58 136 77 42 20 115 61 162 92 47 31 102 63 122 72 19 8 73 37 119
64 49 30 127 64 192 85 60 20 123 42 141 50 17 8 36 15 42 15 8 0 11 213 11
755 0 472 -4 755 -10 755 -5 0 -16 -15 -25 -34z"/>
<path d="M13259 18941 c-48 -25 -93 -52 -101 -59 -53 -44 -351 -178 -431 -192
-73 -14 -103 -28 -122 -57 -15 -23 -15 -27 5 -68 12 -25 31 -59 43 -77 81
-122 101 -163 101 -209 0 -56 -51 -162 -101 -209 -19 -18 -37 -49 -44 -73 -6
-23 -40 -103 -75 -177 -60 -127 -92 -214 -108 -287 -4 -17 -13 -37 -21 -43 -7
-6 -11 -19 -8 -30 4 -15 8 -17 19 -7 30 24 79 85 124 152 31 46 129 169 191
240 15 17 47 53 71 82 50 59 83 87 116 98 29 8 83 -27 127 -82 58 -73 115
-123 140 -123 32 0 37 10 24 51 -21 70 -27 164 -20 333 9 194 6 185 93 277 29
31 91 99 138 150 106 117 155 165 209 208 l43 33 -31 32 c-46 48 -153 86 -232
85 -56 -1 -75 -8 -150 -48z"/>
<path d="M32535 18685 c-44 -25 -89 -49 -101 -54 -38 -17 -99 -62 -99 -74 0
-7 15 -13 33 -15 23 -2 41 4 63 22 17 14 36 26 42 26 7 0 28 8 47 18 19 10 54
24 78 32 40 12 42 15 42 52 0 24 -5 38 -12 38 -7 -1 -49 -21 -93 -45z"/>
<path d="M12458 18525 c-60 -56 -53 -102 45 -304 28 -58 68 -111 83 -111 10 0
-4 103 -30 220 -14 63 -25 129 -26 145 0 29 -24 75 -38 75 -4 0 -19 -11 -34
-25z"/>
<path d="M14887 18434 c-4 -4 -4 -10 -1 -15 6 -10 34 0 34 12 0 10 -24 12 -33
3z"/>
<path d="M11368 17897 c-43 -36 -44 -60 -3 -96 20 -17 40 -29 45 -26 16 10 31
105 20 126 -14 25 -29 24 -62 -4z"/>
<path d="M11108 17703 c-1 -5 -25 -19 -52 -33 -59 -30 -120 -84 -114 -102 3
-7 15 -18 28 -25 27 -13 54 -4 83 31 33 39 97 125 97 131 0 8 -38 6 -42 -2z"/>
<path d="M10555 17476 c-156 -55 -166 -60 -417 -211 -9 -5 -52 -30 -94 -54
-43 -24 -99 -59 -125 -77 -82 -57 -166 -94 -250 -109 -101 -17 -127 -33 -121
-73 2 -17 13 -35 25 -41 12 -7 65 -58 117 -114 162 -175 340 -349 353 -344 25
8 17 50 -21 120 -46 85 -56 127 -38 153 15 19 32 17 271 -46 44 -12 118 -30
165 -40 47 -10 121 -28 164 -39 44 -12 90 -21 102 -21 12 0 64 -14 115 -31
172 -57 279 -68 279 -29 0 6 -14 42 -31 82 -17 40 -40 96 -51 123 -12 28 -31
73 -43 100 -12 28 -43 115 -68 195 -26 80 -63 195 -82 255 -20 61 -38 130 -41
155 -9 62 -28 90 -62 89 -15 0 -81 -19 -147 -43z"/>
<path d="M20910 17374 c0 -14 3 -14 15 -4 8 7 15 14 15 16 0 2 -7 4 -15 4 -8
0 -15 -7 -15 -16z"/>
<path d="M20855 17337 c-25 -15 -175 -147 -230 -202 -22 -22 -55 -51 -74 -65
-19 -14 -52 -41 -75 -60 -109 -94 -199 -164 -331 -255 -55 -38 -128 -92 -161
-120 -120 -97 -283 -196 -364 -220 -14 -4 -38 -17 -55 -30 -16 -12 -102 -59
-190 -105 -88 -46 -179 -96 -203 -112 -23 -16 -73 -42 -110 -57 -73 -31 -218
-105 -242 -125 -8 -7 -52 -31 -97 -54 -45 -23 -101 -55 -125 -72 -23 -17 -61
-40 -83 -51 -22 -10 -58 -30 -80 -44 -22 -13 -55 -32 -72 -41 -18 -10 -33 -21
-33 -25 0 -3 -13 -12 -30 -19 -18 -7 -30 -20 -30 -30 0 -13 -11 -20 -39 -25
-26 -4 -38 -11 -35 -19 4 -10 13 -10 39 -2 19 6 35 14 35 18 0 3 14 10 32 13
17 4 137 61 267 128 130 66 250 126 266 134 17 8 38 19 49 25 68 37 93 52 106
63 8 7 42 25 75 39 33 14 67 31 75 36 8 6 40 22 70 36 108 49 215 106 246 129
120 91 263 126 528 130 99 1 189 5 199 10 9 4 17 15 17 24 0 31 -29 58 -92 85
-35 15 -70 31 -78 35 -22 12 -19 62 5 75 75 42 291 197 315 226 3 3 45 39 94
80 50 41 99 84 111 95 30 29 104 88 134 106 14 9 58 51 96 94 39 43 75 83 80
89 16 18 34 63 28 70 -8 8 -14 7 -38 -7z"/>
<path d="M8700 16899 c-159 -13 -390 -40 -500 -59 -114 -19 -286 -38 -595 -66
-88 -8 -196 -19 -240 -24 -44 -6 -132 -15 -195 -21 -63 -5 -140 -14 -170 -20
-30 -5 -113 -16 -185 -24 -280 -32 -490 -79 -800 -180 -181 -59 -292 -92 -333
-99 -19 -3 -48 -12 -65 -20 -18 -9 -72 -25 -122 -37 -49 -12 -124 -34 -165
-49 -41 -16 -113 -40 -159 -55 -47 -15 -101 -35 -121 -45 -20 -10 -75 -28
-121 -40 -46 -11 -113 -29 -149 -39 -36 -10 -96 -27 -135 -36 -38 -10 -106
-28 -150 -40 -44 -13 -107 -30 -139 -39 -33 -9 -65 -21 -71 -26 -6 -5 -40 -17
-76 -26 -61 -15 -138 -38 -309 -89 -100 -30 -181 -67 -222 -103 -51 -45 -144
-103 -247 -155 -51 -27 -119 -64 -150 -83 -93 -58 -324 -194 -330 -194 -3 0
-53 -29 -111 -65 -120 -73 -316 -185 -324 -185 -4 0 -35 -17 -69 -39 -34 -21
-74 -45 -88 -52 -15 -8 -53 -32 -85 -53 -33 -22 -97 -60 -144 -84 -109 -57
-171 -93 -189 -110 -7 -7 -44 -28 -81 -47 -38 -19 -71 -39 -75 -45 -16 -26
-96 -53 -209 -70 -128 -19 -395 -34 -951 -51 -187 -5 -362 -14 -390 -19 -27
-5 -92 -9 -142 -9 l-93 -1 0 -1814 0 -1814 28 -7 c15 -4 99 -10 187 -14 180
-7 218 -18 223 -64 3 -24 -2 -30 -40 -47 -24 -11 -53 -20 -65 -20 -22 0 -113
-22 -145 -35 -22 -9 -33 -55 -16 -66 20 -13 129 -11 273 6 71 8 173 20 225 25
120 14 208 26 390 57 80 13 196 30 259 39 62 8 121 18 130 23 9 5 77 16 151
25 74 9 162 21 195 26 33 5 92 14 130 19 61 9 159 48 198 79 20 16 81 22 116
12 18 -5 54 -26 79 -47 l46 -38 118 -1 119 -2 52 -36 c28 -20 86 -47 128 -61
42 -13 98 -34 124 -45 65 -28 194 -35 330 -19 61 7 148 13 195 14 75 0 94 -4
155 -32 39 -18 107 -42 150 -54 72 -19 96 -21 269 -17 116 3 223 12 271 21 44
9 143 26 220 37 77 12 172 27 210 35 39 8 133 24 210 35 215 32 248 38 275 58
32 24 36 52 14 94 -58 108 -130 305 -154 418 -12 58 -29 121 -37 140 -14 33
-21 60 -58 210 -9 36 -25 99 -36 140 -19 73 -35 166 -64 380 -8 58 -23 161
-35 230 -11 69 -20 142 -20 163 0 27 -7 45 -25 62 -13 14 -28 25 -32 25 -4 0
-67 -64 -138 -142 -136 -148 -300 -316 -473 -482 -56 -55 -102 -104 -102 -110
-1 -6 -16 -21 -35 -33 l-35 -22 0 33 c0 19 8 40 18 49 10 9 29 38 42 64 13 27
41 66 62 88 21 22 41 48 44 58 3 9 9 17 13 17 11 0 56 69 75 114 13 32 14 38
1 43 -9 3 -28 -8 -47 -28 -43 -45 -128 -156 -128 -167 0 -4 -18 -26 -40 -49
-21 -23 -64 -79 -95 -125 -32 -45 -76 -104 -98 -129 -82 -91 -220 -258 -247
-300 -16 -23 -72 -89 -126 -146 -54 -58 -106 -116 -117 -130 -11 -14 -57 -62
-102 -107 -44 -45 -84 -90 -88 -100 -4 -10 -16 -20 -26 -23 -11 -3 -22 -11
-25 -19 -3 -8 -11 -14 -17 -14 -16 0 -3 46 22 73 11 12 26 29 34 38 8 9 15 19
15 22 0 14 66 115 125 192 34 45 67 91 74 104 7 12 33 46 59 75 101 115 290
362 372 486 27 41 59 88 71 104 58 75 277 433 295 482 4 10 17 32 28 49 12 16
26 39 32 50 67 123 166 255 192 255 6 0 25 12 43 27 18 16 49 39 70 53 20 14
74 53 118 88 58 44 90 62 111 62 34 0 36 -3 49 -130 19 -178 62 -374 102 -465
9 -20 45 -163 94 -375 15 -63 34 -137 42 -165 8 -27 28 -101 44 -163 16 -63
38 -133 49 -157 11 -24 20 -47 20 -50 0 -3 20 -52 44 -108 53 -121 68 -164 96
-277 24 -99 57 -188 78 -212 8 -10 21 -44 28 -75 12 -52 13 -34 6 162 -11 342
-8 467 18 785 5 63 12 156 16 205 6 90 22 135 48 135 38 0 50 -230 26 -490
-16 -166 -14 -471 4 -593 8 -54 17 -101 20 -104 14 -14 19 12 22 119 7 185 22
351 38 403 15 47 37 184 56 340 5 39 12 83 16 98 l6 28 24 -22 c27 -25 37 -58
55 -174 7 -44 25 -120 41 -170 15 -49 28 -101 28 -114 0 -23 22 -117 55 -236
23 -85 104 -314 119 -338 16 -25 54 -135 90 -257 73 -251 90 -270 244 -270
111 0 121 8 101 78 -7 26 -27 82 -45 124 -18 43 -37 101 -44 130 -7 29 -18 68
-26 85 -14 34 -57 199 -69 268 -16 91 -32 261 -26 277 6 17 8 17 29 2 12 -8
22 -22 22 -30 0 -20 52 -157 106 -277 24 -55 44 -103 44 -108 0 -5 13 -37 28
-71 16 -35 35 -79 42 -98 12 -31 52 -106 80 -150 35 -56 57 -101 68 -136 21
-70 39 -76 177 -57 171 24 321 26 641 8 408 -23 470 -23 514 -1 19 9 54 41 77
70 29 38 61 63 112 90 122 64 305 126 371 126 52 0 127 41 189 104 72 73 71
88 -7 202 -119 175 -279 528 -298 658 -3 22 -12 60 -20 84 -44 136 -59 511
-29 728 19 137 50 262 74 293 45 63 157 121 276 143 28 5 94 18 148 29 118 23
307 25 417 4 41 -8 129 -21 195 -29 148 -18 299 -50 328 -69 12 -8 58 -27 102
-42 44 -15 106 -41 137 -57 32 -15 64 -28 72 -28 16 0 312 -146 401 -198 162
-95 174 -108 175 -172 0 -47 -18 -84 -63 -132 -44 -47 -75 -36 -188 66 -30 28
-68 58 -85 65 -16 8 -42 25 -59 36 -61 44 -256 125 -300 125 -9 0 -26 7 -38
15 -65 42 -388 61 -519 30 -136 -32 -263 -84 -323 -132 -120 -95 -183 -185
-228 -328 -40 -125 -52 -217 -52 -390 0 -152 2 -162 26 -210 24 -45 29 -50 57
-47 18 1 53 15 79 31 27 16 57 32 69 35 18 6 51 42 79 87 101 165 343 395 502
478 36 18 211 14 294 -9 126 -33 172 -48 236 -74 35 -14 78 -26 98 -26 43 0
45 -15 11 -92 -26 -58 -75 -108 -107 -108 -11 0 -28 -5 -39 -12 -22 -14 -39
-3 -22 14 7 7 12 31 12 54 0 34 -5 47 -26 63 -15 12 -34 21 -43 21 -9 0 -32 8
-51 19 -55 29 -94 33 -177 20 -84 -14 -79 -26 12 -29 28 -1 64 -7 80 -13 34
-14 105 -59 105 -68 0 -3 -17 -3 -37 1 -22 3 -37 11 -36 18 2 8 -17 12 -63 12
-76 0 -119 -20 -174 -83 -32 -37 -35 -45 -34 -101 0 -59 18 -104 70 -181 23
-33 18 -82 -12 -102 -14 -10 -54 -40 -88 -68 -34 -27 -77 -58 -96 -69 -19 -10
-51 -31 -70 -46 -54 -41 -138 -80 -175 -80 -25 0 -43 9 -70 35 -42 39 -82 50
-156 43 -99 -10 -103 -70 -10 -160 60 -59 77 -66 151 -59 29 3 161 71 210 110
19 15 60 42 90 61 30 18 60 38 65 44 6 6 37 28 69 50 33 21 76 54 96 72 48 45
179 144 190 144 5 0 15 3 24 6 13 5 16 -1 16 -25 0 -17 -3 -31 -7 -31 -5 0
-38 -28 -75 -63 -77 -72 -94 -113 -52 -123 42 -11 212 35 273 74 58 37 269
245 361 357 80 96 302 427 357 533 26 48 79 142 120 208 76 127 123 234 123
283 0 16 11 53 25 84 49 107 58 399 16 517 l-20 55 0 -120 c-1 -140 -23 -331
-45 -394 -9 -24 -16 -53 -16 -65 0 -11 -9 -36 -20 -54 -11 -18 -43 -78 -72
-133 -72 -142 -103 -151 -206 -56 -31 29 -82 67 -112 86 -30 19 -98 62 -150
96 -151 99 -197 124 -380 208 -30 14 -72 30 -92 35 -60 16 -100 50 -96 81 l3
26 113 -4 c61 -2 112 -1 112 2 0 12 -46 55 -75 71 -16 9 -37 21 -45 26 -8 6
-67 34 -130 64 -126 60 -206 84 -380 116 -63 12 -149 28 -190 37 -125 25 -178
32 -345 42 -207 12 -346 40 -422 85 -64 38 -119 88 -128 116 -10 31 -82 58
-118 44 -22 -8 -8 -54 23 -72 51 -32 87 -68 94 -95 5 -23 3 -27 -14 -27 -23 0
-88 38 -109 64 -16 19 -83 56 -102 56 -7 0 -50 18 -97 40 -53 26 -92 38 -104
34 -15 -4 -17 -9 -9 -17 6 -6 11 -18 11 -27 0 -15 121 -138 198 -202 43 -36
51 -76 20 -106 -57 -58 -147 -107 -179 -99 -34 9 -287 258 -359 353 -206 272
-484 746 -511 873 -15 73 0 109 84 198 137 144 256 209 602 328 222 76 538
134 737 135 31 0 69 5 84 10 15 6 111 15 213 20 251 13 331 21 306 30 -35 13
-157 40 -230 50 -118 17 -557 24 -677 11 -173 -19 -458 -83 -535 -121 -23 -11
-48 -20 -55 -20 -7 0 -38 -14 -68 -32 -30 -17 -73 -40 -95 -51 -77 -38 -243
-186 -325 -289 -25 -31 -47 -57 -50 -58 -32 -3 -58 225 -67 565 -4 178 -2 239
9 270 19 58 31 59 218 22 178 -36 270 -49 375 -54 115 -6 185 1 185 18 0 5
-46 55 -102 112 -57 57 -116 123 -133 147 -16 25 -32 47 -36 50 -3 3 -26 35
-52 71 -112 158 -49 185 113 49 45 -38 109 -79 160 -103 47 -22 96 -47 110
-57 14 -9 63 -32 110 -50 47 -17 90 -36 95 -40 6 -4 26 -11 45 -15 19 -4 52
-16 72 -26 40 -21 73 -24 82 -10 4 5 -73 89 -169 187 -96 99 -175 186 -175
194 0 41 46 51 88 21 15 -10 47 -29 72 -43 25 -14 73 -42 108 -63 35 -20 76
-41 90 -45 15 -5 88 -34 162 -65 135 -56 293 -108 425 -139 39 -10 96 -24 127
-32 32 -8 72 -14 89 -14 29 0 31 2 24 28 -3 15 -17 38 -29 52 -24 26 -28 31
-77 95 -65 84 -92 159 -145 400 -22 104 -27 150 -31 345 -2 124 -6 235 -9 247
-4 21 -50 43 -84 40 -8 -1 -49 -4 -90 -8z m-3984 -2550 c13 -27 15 -74 14
-343 -1 -171 -1 -316 -1 -322 2 -27 106 -13 211 29 8 3 68 21 132 41 65 19
127 40 138 46 104 56 238 87 255 60 14 -23 -44 -76 -131 -119 -91 -46 -147
-79 -282 -166 -66 -43 -81 -58 -108 -109 -16 -33 -46 -72 -65 -88 -61 -52
-220 -172 -289 -218 -37 -25 -98 -70 -136 -100 -38 -31 -86 -66 -106 -79 -21
-12 -86 -74 -145 -137 -79 -84 -119 -119 -148 -129 -32 -11 -114 -14 -390 -15
-262 0 -371 -4 -435 -15 -100 -17 -176 -38 -216 -58 -16 -7 -51 -20 -79 -27
-60 -16 -97 -45 -161 -125 -78 -98 -116 -135 -141 -135 -22 0 -67 26 -101 58
-7 6 -18 12 -24 12 -17 0 -142 52 -168 70 -29 20 -150 58 -213 66 -48 7 -191
-24 -266 -58 -74 -34 -136 -48 -264 -63 -181 -22 -254 -32 -337 -49 -41 -9
-127 -25 -190 -36 -63 -11 -137 -26 -165 -34 -64 -18 -218 -51 -315 -66 -88
-14 -238 -53 -266 -69 -33 -19 -147 -66 -206 -86 -85 -28 -93 -12 -26 58 42
44 82 71 188 125 74 39 179 99 232 135 53 36 106 68 117 72 12 3 21 10 21 14
0 4 19 16 43 26 23 10 56 24 74 32 18 7 65 18 105 24 40 5 102 14 138 19 82
12 262 12 405 -1 61 -5 151 -12 201 -15 l91 -7 21 31 c12 16 30 49 41 73 28
66 98 149 139 166 150 61 208 96 283 174 50 52 84 79 99 79 12 0 54 -10 93
-22 67 -20 78 -21 172 -9 54 7 114 19 131 26 40 17 55 60 43 131 -13 81 -11
157 6 181 21 30 57 38 285 62 107 12 224 25 260 30 36 6 103 15 150 21 47 6
112 16 145 22 151 27 228 18 320 -37 67 -41 108 -55 156 -55 43 0 207 36 223
49 6 5 49 21 96 36 134 44 151 62 169 173 5 34 14 70 20 80 14 26 46 168 72
312 33 187 37 204 48 248 7 23 14 42 16 42 3 0 12 -14 21 -31z m-1429 -2576
c-3 -10 -5 -4 -5 12 0 17 2 24 5 18 2 -7 2 -21 0 -30z m-270 -360 c-3 -10 -5
-4 -5 12 0 17 2 24 5 18 2 -7 2 -21 0 -30z m-37 -59 c0 -8 -5 -12 -10 -9 -6 4
-8 11 -5 16 9 14 15 11 15 -7z"/>
<path d="M17423 15253 c-60 -32 -90 -66 -94 -108 -4 -27 -1 -30 22 -28 42 2
194 123 186 148 -7 21 -63 16 -114 -12z"/>
<path d="M9205 14065 c-213 -38 -459 -116 -680 -215 -11 -5 -37 -16 -58 -24
-51 -21 -43 -40 17 -44 36 -2 57 3 90 22 45 26 133 48 271 66 293 38 382 41
537 16 121 -20 218 -21 218 -3 0 16 -107 62 -183 78 -67 14 -74 21 -79 74 -3
37 -6 40 -33 41 -16 1 -61 -4 -100 -11z"/>
</g>
</svg>
